<svg width="25" height="30" viewBox="0 0 25 30" fill="none" xmlns="http://www.w3.org/2000/svg">
<path d="M12.9987 8.6293C11.8307 8.6293 10.0227 7.3013 8.11867 7.3493C5.60667 7.3813 3.30266 8.8053 2.00666 11.0613C-0.601335 15.5893 1.33466 22.2773 3.87866 25.9573C5.12666 27.7493 6.59867 29.7653 8.55066 29.7013C10.4227 29.6213 11.1267 28.4853 13.3987 28.4853C15.6547 28.4853 16.2947 29.7013 18.2787 29.6533C20.2947 29.6213 21.5747 27.8293 22.8067 26.0213C24.2307 23.9413 24.8227 21.9253 24.8547 21.8133C24.8067 21.7973 20.9347 20.3093 20.8867 15.8293C20.8547 12.0853 23.9427 10.2933 24.0867 10.2133C22.3267 7.6373 19.6227 7.3493 18.6787 7.2853C16.2147 7.0933 14.1507 8.6293 12.9987 8.6293ZM17.1587 4.8533C18.1987 3.6053 18.8867 1.8613 18.6947 0.133301C17.2067 0.197301 15.4147 1.1253 14.3427 2.3733C13.3827 3.4773 12.5507 5.2533 12.7747 6.9493C14.4227 7.0773 16.1187 6.1013 17.1587 4.8533Z" fill="white"/>
</svg>
