<svg width="42" height="42" viewBox="0 0 42 42" fill="none" xmlns="http://www.w3.org/2000/svg">
<path opacity="0.2" d="M0 10C0 4.47715 4.47715 0 10 0H32C37.5228 0 42 4.47715 42 10V32C42 37.5228 37.5228 42 32 42H10C4.47715 42 0 37.5228 0 32V10Z" fill="white"/>
<path d="M26.8333 18.5C26.8333 17.6159 26.4821 16.7681 25.857 16.1429C25.2319 15.5178 24.384 15.1666 23.5 15.1666V13.5C23.5 13.2789 23.4122 13.067 23.2559 12.9107C23.0996 12.7544 22.8876 12.6666 22.6666 12.6666C22.4456 12.6666 22.2337 12.7544 22.0774 12.9107C21.9211 13.067 21.8333 13.2789 21.8333 13.5V15.1666H20.1666V13.5C20.1666 13.2789 20.0788 13.067 19.9225 12.9107C19.7663 12.7544 19.5543 12.6666 19.3333 12.6666C19.1123 12.6666 18.9003 12.7544 18.744 12.9107C18.5878 13.067 18.5 13.2789 18.5 13.5V15.1666H16C15.7789 15.1666 15.567 15.2544 15.4107 15.4107C15.2544 15.567 15.1666 15.7789 15.1666 16C15.1666 16.221 15.2544 16.4329 15.4107 16.5892C15.567 16.7455 15.7789 16.8333 16 16.8333H16.8333V25.1666H16C15.7789 25.1666 15.567 25.2544 15.4107 25.4107C15.2544 25.567 15.1666 25.7789 15.1666 26C15.1666 26.221 15.2544 26.4329 15.4107 26.5892C15.567 26.7455 15.7789 26.8333 16 26.8333H18.5V28.5C18.5 28.721 18.5878 28.9329 18.744 29.0892C18.9003 29.2455 19.1123 29.3333 19.3333 29.3333C19.5543 29.3333 19.7663 29.2455 19.9225 29.0892C20.0788 28.9329 20.1666 28.721 20.1666 28.5V26.8333H21.8333V28.5C21.8333 28.721 21.9211 28.9329 22.0774 29.0892C22.2337 29.2455 22.4456 29.3333 22.6666 29.3333C22.8876 29.3333 23.0996 29.2455 23.2559 29.0892C23.4122 28.9329 23.5 28.721 23.5 28.5V26.8333C24.1752 26.829 24.8332 26.6197 25.3869 26.2331C25.9405 25.8465 26.3637 25.3009 26.6004 24.6685C26.8371 24.0361 26.8762 23.3467 26.7124 22.6916C26.5486 22.0365 26.1897 21.4466 25.6833 21C26.0419 20.6891 26.33 20.3053 26.5283 19.8742C26.7266 19.443 26.8306 18.9745 26.8333 18.5V18.5ZM23.5 25.1666H18.5V21.8333H23.5C23.942 21.8333 24.3659 22.0089 24.6785 22.3214C24.991 22.634 25.1666 23.0579 25.1666 23.5C25.1666 23.942 24.991 24.3659 24.6785 24.6785C24.3659 24.991 23.942 25.1666 23.5 25.1666ZM23.5 20.1666H18.5V16.8333H23.5C23.942 16.8333 24.3659 17.0089 24.6785 17.3214C24.991 17.634 25.1666 18.0579 25.1666 18.5C25.1666 18.942 24.991 19.3659 24.6785 19.6785C24.3659 19.991 23.942 20.1666 23.5 20.1666Z" fill="white"/>
</svg>
