<svg width="60" height="60" viewBox="0 0 60 60" fill="none" xmlns="http://www.w3.org/2000/svg">
<g filter="url(#filter0_d_229_1840)">
<path fill-rule="evenodd" clip-rule="evenodd" d="M30.3264 16.2096C30.4861 16.0663 30.6973 15.9911 30.9135 16.0008C35.4843 16.1376 39.3044 19.4557 39.9967 23.8906C40.0011 23.917 40.0011 23.9441 39.9967 23.9705C40.0116 24.1804 39.9407 24.3874 39.7996 24.5458C39.6586 24.7042 39.459 24.8009 39.2451 24.8146L31.5656 25.321C31.3116 25.3436 31.0597 25.26 30.8718 25.0909C30.6839 24.9217 30.5774 24.6827 30.5785 24.4325L30.0623 16.8893V16.7649C30.0717 16.5527 30.1667 16.3529 30.3264 16.2096ZM29.7997 27.2935L36.4558 26.867L36.5011 26.8848C36.7869 26.8895 37.0591 27.0054 37.2579 27.207C37.4566 27.4086 37.5655 27.6794 37.5606 27.9599C37.2984 31.782 34.4962 34.9754 30.6828 35.7982C26.8694 36.6209 22.9602 34.8754 21.0878 31.5138C20.5372 30.5456 20.1893 29.4793 20.0645 28.3774C20.016 28.0509 19.9948 27.7211 20.0011 27.3912C20.0137 23.327 22.9073 19.819 26.9561 18.9594C27.4462 18.8677 27.9376 19.1124 28.1515 19.5547C28.2047 19.635 28.2473 19.7216 28.2782 19.8124C28.3541 20.984 28.4329 22.1445 28.5113 23.3001C28.5732 24.2127 28.6349 25.1223 28.6948 26.0318C28.6917 26.2461 28.7254 26.4594 28.7944 26.6627C28.9569 27.0627 29.3614 27.3165 29.7997 27.2935Z" fill="#EAB96B"/>
</g>
<defs>
<filter id="filter0_d_229_1840" x="-2" y="-2.00006" width="64" height="64" filterUnits="userSpaceOnUse" color-interpolation-filters="sRGB">
<feFlood flood-opacity="0" result="BackgroundImageFix"/>
<feColorMatrix in="SourceAlpha" type="matrix" values="0 0 0 0 0 0 0 0 0 0 0 0 0 0 0 0 0 0 127 0" result="hardAlpha"/>
<feOffset dy="4"/>
<feGaussianBlur stdDeviation="10"/>
<feComposite in2="hardAlpha" operator="out"/>
<feColorMatrix type="matrix" values="0 0 0 0 0.917647 0 0 0 0 0.72549 0 0 0 0 0.419608 0 0 0 0.5 0"/>
<feBlend mode="normal" in2="BackgroundImageFix" result="effect1_dropShadow_229_1840"/>
<feBlend mode="normal" in="SourceGraphic" in2="effect1_dropShadow_229_1840" result="shape"/>
</filter>
</defs>
</svg>
